<svg width="192.99999999999997" height="47.99999999999999" xmlns="http://www.w3.org/2000/svg">
 <!-- Generator: Sketch 39.1 (31720) - http://www.bohemiancoding.com/sketch -->
 <title>btn_strava_connectwith_orange</title>
 <desc>Created with Sketch.</desc>

 <g>
  <title>background</title>
  <rect fill="none" id="canvas_background" height="402" width="582" y="-1" x="-1"/>
 </g>
 <g>
  <title>Layer 1</title>
  <g fill-rule="evenodd" fill="none" id="Strava-Button_outlined">
   <g id="btn_strava_connectwith_orange">
    <rect rx="2" height="40" width="185" y="4.65035" x="5.34965" fill="#FC4C02" id="button-bg"/>
    <path stroke="null" fill="#FFFFFF" id="Strava-logo-Copy-6" d="m158.640114,15.082554l-2.783447,6.706764l-2.785203,-6.706764l-4.093717,0l6.878919,16.567795l6.873995,-16.567795l-4.090548,0zm-22.624195,5.856106c0,-0.503932 -0.146894,-0.880094 -0.438766,-1.123058c-0.290767,-0.245097 -0.687974,-0.366862 -1.185272,-0.366862l-1.86309,0l0,3.051074l1.844214,0c0.511261,0 0.913381,-0.133966 1.204148,-0.40113c0.291873,-0.267744 0.438766,-0.64022 0.438766,-1.115108l0,-0.044916zm10.268008,-6.833766l6.876845,16.567795l-4.093717,0l-2.783128,-6.707155l-2.781544,6.707155l-2.778375,0l-1.31329,0l-3.559612,0l-2.4102,-4.454265l-0.034743,0l-0.877373,0l0,4.454265l-4.271375,0l0,-15.590135l6.243766,0c1.143553,0 2.083425,0.159907 2.818977,0.479153c0.737626,0.318666 1.329305,0.754063 1.779812,1.303492c0.390231,0.473727 0.681944,1.009795 0.877692,1.601428c0.193366,0.594332 0.291713,1.294571 0.291713,2.09297l0,0.047238c0,1.142223 -0.225248,2.10787 -0.67686,2.894069c-0.448763,0.786968 -1.063136,1.412477 -1.843587,1.871115l2.220003,3.955366l6.314996,-15.222491zm19.139916,0l-6.876058,16.567795l4.093728,0l2.78233,-6.707155l2.784245,6.707155l4.092611,0l-6.876856,-16.567795zm-49.560367,5.385078l3.760114,0l0,11.182717l4.272184,0l0,-11.182717l3.761071,0l0,-4.407418l-11.793369,0l0,4.407418zm-0.15387,4.144317c0.260937,0.549429 0.392123,1.218694 0.392123,2.004109l0,0.045699c0,0.81581 -0.13309,1.552246 -0.40212,2.204667c-0.266967,0.654162 -0.645138,1.206695 -1.131494,1.660286c-0.487473,0.452052 -1.078034,0.800721 -1.771092,1.046195c-0.692727,0.246446 -1.473018,0.369386 -2.335482,0.369386c-1.301378,0 -2.516321,-0.220897 -3.642104,-0.657644c-1.125623,-0.439271 -2.095314,-1.096348 -2.910348,-1.970436l2.281077,-3.317657c0.692887,0.652232 1.424483,1.120534 2.189706,1.402219c0.766328,0.282266 1.527743,0.423399 2.282182,0.423399c0.39006,0 0.668927,-0.060019 0.839621,-0.177344c0.171788,-0.119255 0.255226,-0.283035 0.255226,-0.489991l0,-0.044336c0,-0.224757 -0.126103,-0.412548 -0.374205,-0.558526c-0.248091,-0.148286 -0.71573,-0.303361 -1.396716,-0.466372c-0.717633,-0.179463 -1.402598,-0.388348 -2.052808,-0.625118c-0.651168,-0.235608 -1.222865,-0.541493 -1.71525,-0.913389c-0.493172,-0.370155 -0.885307,-0.839631 -1.178125,-1.40338c-0.291884,-0.564721 -0.43782,-1.255863 -0.43782,-2.071673l0,-0.044916c0,-0.743225 0.118181,-1.434354 0.356275,-2.072064c0.235256,-0.638479 0.58281,-1.196425 1.039336,-1.670152c0.456696,-0.475482 1.023469,-0.846028 1.699383,-1.115122c0.673065,-0.267163 1.44923,-0.40036 2.326762,-0.40036c1.239837,0 2.325805,0.178694 3.256797,0.53627c0.931152,0.353689 1.766954,0.888988 2.510451,1.601428l-2.080575,3.52055c-0.608492,-0.536257 -1.25062,-0.925779 -1.925737,-1.171456c-0.676872,-0.245474 -1.310269,-0.368414 -1.90783,-0.368414c-0.315673,0 -0.5498,0.059439 -0.701766,0.178694c-0.154827,0.118864 -0.228268,0.275491 -0.228268,0.467532l0,0.044336c0,0.209668 0.114054,0.387768 0.346449,0.536648c0.232224,0.147719 0.681785,0.304144 1.349925,0.467532c0.815821,0.176953 1.557414,0.393194 2.228404,0.644094c0.667981,0.254976 1.244761,0.57653 1.72413,0.970898c0.480645,0.393572 0.852786,0.863047 1.113894,1.414407l0,0z"/>
    <text font-weight="bold" xml:space="preserve" text-anchor="start" font-family="'League Gothic', sans-serif" font-size="15" id="svg_9" y="29.257867" x="22.898601" fill-opacity="null" stroke-opacity="null" stroke-width="0" stroke="null" fill="#ffffff">Conectar</text>
   </g>
  </g>
 </g>
</svg>